<?xml version="1.0" standalone="no"?>
<!DOCTYPE svg PUBLIC "-//W3C//DTD SVG 20010904//EN"
 "http://www.w3.org/TR/2001/REC-SVG-20010904/DTD/svg10.dtd">
<svg version="1.0" xmlns="http://www.w3.org/2000/svg"
 width="1200.000000pt" height="1600.000000pt" viewBox="0 0 1200.000000 1600.000000"
 preserveAspectRatio="xMidYMid meet">
<metadata>
Created by potrace 1.16, written by Peter Selinger 2001-2019
</metadata>
<g transform="translate(0.000000,1600.000000) scale(0.100000,-0.100000)"
fill="#000000" stroke="none">
<path d="M0 8000 l0 -8000 334 0 333 0 -3 297 c-2 164 -5 611 -8 993 -3 382
-8 794 -11 915 -8 279 -8 4241 0 4915 22 1939 30 2392 47 2423 5 10 6 27 3 37
-4 11 -3 20 2 20 4 0 7 26 6 57 -2 44 -1 53 7 36 5 -12 10 -42 11 -67 2 -25 6
-43 10 -41 8 5 19 -55 19 -107 0 -20 4 -38 8 -40 5 -1 6 -118 3 -258 -3 -140
-4 -257 -1 -260 3 -3 6 -126 7 -275 2 -148 3 -272 3 -275 3 -14 -7 -730 -9
-760 -1 -8 -1 -316 -1 -685 1 -1069 2 -1393 4 -1505 1 -58 -2 -113 -7 -122 -5
-13 -3 -18 8 -18 12 0 13 -3 4 -19 -7 -11 -9 -26 -4 -37 5 -11 7 -23 6 -29 -7
-27 1 -530 9 -600 7 -65 6 -82 -5 -91 -11 -8 -12 -18 -4 -45 19 -64 24 -210
13 -366 -3 -51 -2 -93 3 -93 4 0 8 -58 8 -128 l0 -129 32 -32 c26 -25 33 -41
33 -71 0 -21 6 -41 13 -43 6 -3 -7 -6 -30 -6 -41 -1 -43 -2 -43 -31 0 -28 3
-30 38 -31 20 0 46 -5 57 -10 17 -8 15 -8 -7 -4 -27 5 -28 4 -28 -35 0 -22 -4
-40 -10 -40 -6 0 -10 -33 -10 -80 0 -47 4 -80 10 -80 6 0 10 -18 10 -40 0 -33
3 -40 20 -40 17 0 20 -7 20 -50 0 -46 -13 -67 -22 -38 -3 9 -12 9 -37 -2 -26
-10 -34 -11 -40 -1 -5 7 -11 -15 -15 -50 -9 -88 -8 -99 8 -99 10 0 16 -22 21
-80 6 -69 10 -80 26 -80 10 0 19 -4 19 -10 0 -5 -11 -10 -25 -10 -23 0 -25 4
-25 46 0 29 -6 51 -17 62 -16 16 -16 16 -7 -3 12 -27 7 -219 -7 -273 -8 -29
-9 -46 -2 -50 18 -12 22 -104 6 -129 -13 -20 -14 -26 -1 -45 12 -18 14 -45 9
-133 -4 -60 -3 -111 1 -113 4 -2 8 -14 8 -27 0 -13 5 -27 10 -30 17 -10 12
-85 -5 -85 -10 0 -15 -10 -15 -32 0 -18 -5 -53 -11 -77 -6 -27 -6 -47 -1 -50
16 -10 20 -91 5 -91 -16 0 -16 1 -17 -127 -1 -57 3 -103 8 -103 4 0 5 -35 2
-78 -4 -42 -9 -158 -11 -257 -3 -99 -7 -238 -10 -310 -13 -314 -16 -398 -16
-523 -1 -72 -5 -135 -10 -138 -9 -5 -3 -100 8 -117 3 -5 0 -13 -6 -17 -8 -5
-10 -19 -6 -44 l7 -36 5634 0 5634 0 -2 692 -3 693 -80 -3 c-44 -1 -75 1 -68
5 6 4 -44 9 -110 11 -67 1 -169 5 -226 8 -76 5 -102 4 -97 -5 4 -6 1 -11 -8
-11 -9 0 -16 5 -16 10 0 14 -27 12 -34 -2 -5 -10 -7 -10 -12 0 -3 6 -19 12
-35 12 -19 0 -28 -4 -23 -11 3 -6 -7 -4 -22 4 -20 9 -69 14 -153 16 -68 0
-127 4 -132 6 -4 3 -37 1 -74 -5 -56 -9 -69 -8 -91 6 -19 13 -28 14 -37 5 -6
-6 -21 -11 -34 -11 -13 0 -23 -4 -23 -10 0 -17 -29 -11 -50 10 -21 21 -110 29
-110 10 0 -5 -9 -10 -20 -10 -27 0 -25 -16 3 -25 l22 -7 -25 -8 c-47 -15 -60
-12 -60 15 l0 26 -86 -3 c-63 -2 -88 0 -91 9 -3 8 5 13 19 14 16 1 18 3 6 6
-29 7 -57 -15 -64 -52 -7 -40 -24 -47 -24 -10 0 25 0 25 -99 25 -153 0 -221
-9 -221 -30 0 -10 -8 -20 -17 -24 -22 -7 -56 -28 -64 -40 -4 -4 -60 -3 -128 5
-113 12 -122 12 -141 -6 -27 -24 -25 -35 5 -35 16 0 25 -6 25 -15 0 -20 -65
-20 -104 0 -15 8 -35 15 -42 15 -16 0 -19 -36 -4 -45 13 -8 13 -35 0 -35 -5 0
-10 7 -10 15 0 11 -11 15 -40 15 -36 0 -40 -3 -40 -24 0 -13 -3 -31 -6 -40 -5
-13 2 -16 40 -16 34 0 46 -4 46 -15 0 -8 5 -15 10 -15 6 0 10 12 10 28 1 26 1
26 15 8 12 -16 18 -17 27 -8 7 7 32 12 56 12 40 0 43 -2 38 -22 -3 -13 -3 -17
0 -10 5 10 9 10 20 1 8 -6 27 -9 42 -7 24 3 28 1 24 -14 -4 -15 2 -18 37 -18
37 0 41 -2 41 -25 0 -21 -6 -27 -32 -33 -27 -6 -20 -8 42 -13 l75 -5 -102 -2
c-92 -2 -127 7 -90 21 7 3 5 6 -5 6 -10 1 -23 -5 -30 -12 -13 -14 -58 -11 -58
4 0 5 -7 9 -15 9 -8 0 -15 -4 -15 -10 0 -5 -11 -10 -25 -10 -14 0 -25 5 -25
10 0 14 -13 12 -36 -4 -17 -13 -13 -14 41 -14 97 0 115 -1 115 -11 0 -5 -33
-7 -72 -5 -40 2 -217 8 -393 14 -482 16 -1324 48 -1550 60 -110 5 -306 14
-435 20 -694 30 -646 25 -660 59 -7 19 -10 113 -6 307 4 291 17 402 85 737 23
110 26 118 46 110 8 -3 15 1 15 8 0 7 3 10 6 6 3 -3 27 1 54 9 26 8 102 16
168 18 67 3 129 9 139 15 11 5 48 10 83 10 36 1 108 5 160 11 162 17 182 18
275 24 50 3 117 8 149 10 33 3 136 8 230 11 179 7 287 17 371 35 28 6 69 11
93 11 23 1 42 5 42 11 0 7 20 9 57 5 33 -4 65 -1 77 5 15 8 21 8 24 -1 5 -14
62 -15 62 0 0 7 12 9 34 5 40 -8 75 2 54 15 -7 5 61 9 160 8 94 0 172 -3 172
-7 0 -4 42 -9 93 -11 50 -2 106 -4 124 -5 17 0 29 -5 26 -10 -3 -4 16 -7 43
-5 27 1 56 0 64 -3 8 -4 89 -11 180 -16 172 -10 334 -6 324 9 -3 5 9 9 25 9
20 0 31 5 31 14 0 8 8 17 18 19 11 3 7 5 -10 6 -15 0 -29 5 -32 10 -6 9 35 17
139 26 369 32 423 38 463 55 38 17 52 37 36 52 -3 3 -25 0 -49 -7 -52 -16
-147 -24 -360 -29 -89 -2 -149 -1 -135 4 24 8 23 8 -7 9 -30 1 -33 4 -33 32 0
21 -10 40 -31 62 l-32 31 -15 -22 c-19 -30 -72 -31 -79 -2 -6 22 -61 50 -99
50 -14 0 -24 6 -24 14 0 8 -15 16 -38 20 -60 9 -145 76 -98 76 9 0 19 7 23 16
5 13 7 13 14 2 7 -10 9 -9 9 5 0 11 8 17 24 17 14 0 28 5 31 10 3 6 1 10 -4
10 -6 0 -11 5 -11 10 0 11 73 6 113 -6 16 -5 17 -3 5 15 -7 12 -16 21 -20 21
-5 0 -8 14 -8 30 0 17 5 30 10 30 6 0 10 7 10 15 0 8 -4 15 -8 15 -5 0 -14 19
-21 41 -7 23 -30 60 -52 82 -21 23 -39 48 -39 57 0 19 -81 130 -96 130 -14 0
-64 53 -64 69 0 6 -15 40 -32 73 -32 60 -151 188 -215 229 -32 22 -89 24 -161
7 -44 -10 -53 -9 -67 6 -56 56 -197 70 -416 42 -70 -9 -164 -16 -210 -15 -98
1 -219 -22 -294 -57 -30 -13 -60 -24 -68 -24 -8 0 -20 -7 -27 -15 -7 -8 -17
-15 -22 -15 -5 0 -28 -9 -50 -20 -23 -11 -50 -20 -60 -20 -10 0 -18 -4 -18 -8
0 -11 -206 -114 -290 -146 -138 -51 -487 -69 -720 -36 -36 5 -119 14 -185 20
-66 6 -133 13 -150 15 -16 3 -84 7 -150 10 -266 12 -332 16 -370 19 -22 3 -98
7 -170 11 -185 8 -341 24 -408 41 -32 7 -72 14 -89 14 -16 0 -71 13 -121 30
-51 16 -128 40 -172 54 -98 30 -297 105 -308 115 -5 5 1 44 13 87 11 43 29
111 39 149 43 166 65 232 87 270 55 95 154 155 284 172 350 47 327 49 595 -45
246 -86 347 -105 650 -121 338 -19 465 -32 475 -51 8 -14 36 -18 192 -23 286
-11 409 -21 1198 -102 226 -23 242 -23 423 -10 103 8 223 19 267 26 98 14 167
1 223 -43 43 -34 96 -55 106 -42 3 5 31 18 61 29 51 19 75 20 350 17 323 -4
346 -1 397 54 23 25 23 26 6 55 -10 16 -23 27 -30 25 -16 -7 -17 37 -2 66 22
40 3 65 -82 109 -82 43 -102 63 -114 111 -5 21 -2 29 14 38 12 6 21 21 21 33
0 13 6 29 12 36 11 10 10 14 -5 22 -9 6 -17 19 -17 29 0 12 -15 30 -37 44 -21
13 -49 39 -63 57 -31 41 -92 104 -105 110 -27 12 -85 52 -85 59 0 5 -13 11
-29 15 -60 13 -5 65 69 65 15 0 49 7 76 15 44 13 56 13 114 -1 70 -17 203 -75
214 -92 8 -14 -19 -209 -32 -225 -13 -16 -21 -186 -10 -194 18 -10 98 8 98 23
0 8 -7 14 -15 14 -8 0 -15 5 -15 10 0 14 4 13 45 -10 20 -11 48 -20 63 -20
l27 1 -25 20 c-58 47 -80 70 -80 80 0 5 5 7 10 4 6 -4 23 -10 39 -15 25 -7 28
-6 23 12 -2 11 -11 22 -19 25 -9 3 -26 16 -40 29 -24 23 -25 26 -18 113 7 86
23 128 40 101 6 -10 45 -14 45 -4 0 3 -5 15 -11 26 -8 15 -8 19 0 14 14 -9 13
5 -2 72 -7 29 -16 49 -21 45 -4 -4 -7 44 -6 107 1 113 -4 171 -35 439 -14 117
-14 135 -1 145 17 13 44 184 50 316 4 78 7 90 40 139 35 52 36 54 36 155 l0
103 61 84 c71 98 90 133 119 219 65 192 65 451 0 585 -26 55 -26 62 11 80 24
13 28 19 19 30 -16 19 -67 35 -110 33 -19 0 -66 4 -105 8 -61 8 -70 12 -73 31
-10 70 185 49 320 -35 l38 -23 61 32 c33 18 71 47 84 63 44 60 78 134 73 160
-6 30 -3 33 76 77 51 27 69 32 127 32 37 -1 72 -4 78 -7 7 -5 11 -48 11 -116
0 -69 4 -111 11 -116 6 -3 89 -9 184 -12 l173 -5 4 -96 c5 -116 29 -173 82
-195 29 -12 34 -18 29 -38 -3 -13 -12 -31 -20 -40 -8 -9 -12 -22 -8 -27 3 -6
0 -11 -7 -12 -32 -1 72 -31 122 -34 64 -5 90 6 72 28 -10 11 -9 27 4 73 13 47
18 119 21 345 l5 286 80 6 c44 4 118 5 164 3 l84 -4 0 405 0 405 -27 -6 c-16
-3 -66 -12 -113 -20 -90 -15 -290 -52 -352 -65 -20 -5 -41 -6 -46 -2 -13 8
-27 141 -15 141 5 0 131 25 279 55 148 30 270 55 272 55 1 0 2 19 2 41 0 41 0
42 -32 36 -18 -3 -41 -8 -50 -12 -10 -4 -18 -3 -18 3 0 6 22 13 50 17 l50 7 0
3363 c0 3195 -1 3364 -17 3368 -17 4 -17 5 0 6 9 0 17 8 17 16 0 15 -10 19
-43 15 -10 -1 -27 6 -37 15 -16 15 -18 14 -22 -7 -3 -13 -4 -52 -3 -88 7 -273
8 -418 0 -430 -46 -80 -204 -337 -258 -422 -21 -31 -37 -61 -37 -67 0 -6 -4
-11 -8 -11 -4 0 -18 -19 -30 -42 -12 -24 -28 -52 -34 -63 -7 -10 -33 -51 -58
-90 -41 -64 -195 -317 -314 -518 -27 -45 -53 -83 -58 -85 -4 -2 -8 -8 -8 -13
0 -10 -137 -241 -181 -306 -16 -23 -29 -44 -29 -47 0 -7 -62 -109 -70 -116 -4
-3 -9 -12 -12 -21 -4 -9 -52 -89 -107 -179 -56 -89 -101 -163 -101 -165 0 -2
-17 -30 -38 -62 -21 -32 -42 -66 -45 -76 -4 -10 -23 -44 -44 -75 -75 -118
-273 -438 -290 -470 -25 -48 -88 -147 -96 -150 -4 -2 -7 -8 -7 -14 0 -5 -10
-24 -23 -41 -12 -18 -28 -42 -34 -54 -29 -52 -40 -70 -65 -108 -108 -166 -205
-338 -201 -355 3 -11 10 -17 16 -13 6 4 8 -2 4 -18 -4 -13 -7 -31 -7 -40 0 -9
-9 -19 -20 -22 -17 -4 -20 -14 -20 -54 0 -26 7 -80 15 -118 9 -39 20 -95 25
-125 12 -68 17 -93 29 -150 5 -25 15 -74 21 -110 13 -72 16 -89 61 -300 78
-372 152 -781 142 -791 -7 -6 -158 -34 -378 -69 -141 -23 -354 -62 -380 -70
-38 -11 -383 -66 -490 -78 -68 -7 -82 -6 -92 7 -9 13 -8 17 8 21 19 5 19 5 -2
23 -15 13 -20 26 -16 45 3 15 -2 44 -10 65 -13 31 -13 41 -3 47 8 5 9 9 1 14
-6 4 -11 20 -11 37 0 16 -5 29 -11 29 -8 0 -10 -22 -5 -72 3 -40 7 -109 8
-153 3 -76 2 -80 -22 -92 -14 -7 -112 -27 -219 -45 -152 -25 -199 -36 -215
-52 -19 -19 -19 -32 -13 -685 4 -366 10 -771 14 -900 4 -142 3 -232 -3 -229
-12 8 -194 -82 -489 -242 -33 -18 -87 -46 -120 -63 -33 -16 -67 -35 -75 -42
-28 -23 -67 -27 -75 -7 -4 9 -11 98 -16 197 -5 99 -12 200 -16 225 -4 25 -6
53 -5 63 1 10 -3 27 -8 38 -8 13 -7 25 0 39 8 16 8 20 -4 20 -11 0 -15 -32
-21 -164 -4 -90 -5 -168 -2 -173 3 -5 8 -75 12 -156 5 -107 3 -147 -5 -147 -6
0 -10 -10 -8 -22 3 -20 8 -21 85 -19 71 2 86 -1 104 -18 16 -15 30 -19 48 -14
24 5 22 2 -16 -36 -24 -24 -43 -49 -43 -56 0 -8 -18 -20 -40 -26 -28 -9 -40
-18 -40 -31 0 -12 -7 -18 -23 -18 -13 0 -29 -6 -36 -12 -11 -11 -14 -10 -18 0
-6 16 -93 -64 -93 -85 0 -7 -9 -13 -20 -13 -12 0 -25 -10 -32 -26 -11 -23 -16
-25 -57 -21 -65 7 -100 16 -150 39 -44 21 -74 26 -175 31 -79 3 -88 -12 -54
-85 l26 -54 149 -27 150 -27 68 31 c67 30 70 30 127 18 32 -7 58 -17 58 -21 0
-4 11 -8 25 -8 13 0 29 -8 35 -17 10 -17 10 -17 20 0 6 9 23 17 38 17 27 0
180 -23 397 -60 66 -12 134 -23 151 -26 31 -4 48 -28 56 -78 4 -27 19 -32 158
-56 69 -12 159 -27 200 -35 80 -14 97 -10 160 37 15 10 62 28 107 38 44 11 94
27 109 35 34 17 48 19 39 5 -8 -12 5 -13 24 -1 7 5 11 13 7 19 -3 6 10 20 29
32 19 12 38 27 42 34 5 6 58 41 118 77 61 37 167 101 238 144 121 73 129 77
157 65 16 -7 69 -13 117 -14 l88 -1 175 94 c313 169 460 242 471 235 40 -25
85 -242 74 -359 -14 -150 -51 -274 -111 -374 -59 -99 -58 -98 -95 -67 -59 50
-65 46 -256 -217 l-173 -238 -10 -141 c-6 -87 -6 -147 0 -158 5 -10 30 -23 56
-29 46 -12 48 -11 71 16 12 15 32 43 44 61 31 48 44 36 44 -40 0 -47 5 -71 17
-84 30 -34 68 -364 42 -364 -7 0 -16 5 -19 10 -11 18 -25 11 -25 -12 1 -21 29
-83 30 -65 0 4 9 3 20 -3 17 -9 19 -17 13 -58 -3 -26 -11 -55 -18 -64 -10 -15
-12 -13 -13 15 -2 72 -6 96 -14 91 -5 -4 -21 4 -34 17 -20 19 -25 32 -23 64
l3 40 -41 -3 c-37 -2 -44 1 -64 30 -29 42 -70 77 -90 78 -16 0 -49 30 -49 45
0 11 -29 33 -67 50 -18 8 -33 19 -33 24 0 6 -7 11 -15 11 -9 0 -21 11 -27 25
-15 33 -36 32 -51 -3 -9 -20 -18 -26 -35 -24 -27 4 -38 -19 -22 -48 15 -28 0
-40 -47 -40 -55 0 -63 8 -63 61 0 38 -4 51 -22 63 -32 22 -41 20 -34 -9 7 -29
-1 -31 -40 -10 -16 8 -37 12 -46 9 -10 -3 -18 -2 -18 3 0 5 -53 7 -117 6 -201
-4 -447 -14 -463 -20 -8 -2 -65 -4 -127 -4 -70 1 -130 -4 -160 -12 -26 -8 -86
-22 -132 -30 -103 -20 -143 -51 -110 -84 9 -9 16 -7 28 6 9 11 39 23 66 29 28
6 68 15 90 21 61 16 415 14 531 -4 54 -8 144 -16 198 -17 110 -3 130 -16 72
-43 -20 -10 -33 -21 -30 -26 8 -13 -30 -11 -43 2 -8 8 -25 7 -61 -5 -66 -22
-78 -37 -57 -69 15 -24 17 -24 57 -10 32 11 47 12 69 3 15 -7 36 -9 46 -6 10
3 31 -1 47 -9 15 -8 34 -15 41 -15 7 0 18 -7 25 -16 21 -25 -24 -61 -69 -55
-20 2 -38 7 -41 11 -5 7 -76 21 -210 40 -143 21 -387 36 -460 29 -123 -12
-367 -71 -340 -81 9 -4 10 -7 3 -7 -7 -1 -17 8 -23 20 -10 18 -18 20 -63 15
-142 -17 -157 -18 -157 -6 0 6 4 9 9 5 5 -3 18 8 27 25 10 16 33 37 51 45 18
9 33 20 33 26 0 6 5 7 10 4 6 -4 10 5 10 19 l0 26 -45 -22 c-54 -26 -68 -18
-32 20 14 15 37 56 50 92 22 57 30 67 73 91 45 25 63 28 229 38 251 16 277 19
321 41 43 22 76 25 105 9 14 -7 30 -7 53 1 18 6 60 11 94 11 48 1 65 5 79 21
18 20 18 20 -147 13 -91 -3 -217 -7 -280 -8 -63 -1 -124 -7 -135 -13 -11 -6
-47 -15 -80 -19 -124 -14 -247 -54 -299 -96 -22 -17 -72 -56 -141 -109 -38
-30 -83 -67 -99 -82 -15 -16 -41 -35 -56 -43 -16 -8 -43 -28 -61 -45 -19 -16
-41 -30 -50 -30 -27 0 -31 29 -9 60 11 15 20 35 20 44 0 9 9 27 20 39 19 20
20 22 3 28 -10 3 -20 3 -23 -1 -13 -17 -122 -100 -133 -100 -7 0 -23 -12 -36
-25 -13 -14 -27 -25 -32 -25 -17 0 -9 50 15 98 26 52 40 112 27 112 -5 0 -25
-19 -45 -42 -41 -47 -43 -51 -69 -90 -9 -16 -44 -41 -77 -58 -69 -35 -88 -60
-59 -78 10 -7 28 -12 38 -12 11 0 22 -4 26 -9 6 -10 -32 -51 -47 -51 -4 0 -8
-7 -8 -15 0 -8 -4 -15 -10 -15 -5 0 -10 -7 -10 -15 0 -8 -23 -26 -50 -40 -28
-14 -50 -29 -50 -34 0 -24 166 -55 376 -70 150 -11 410 -48 434 -62 25 -15 83
-39 85 -37 2 2 12 26 24 53 22 52 55 84 127 125 41 24 42 24 85 6 96 -40 146
-55 184 -56 39 0 81 -20 120 -56 11 -11 52 -34 90 -52 39 -18 69 -37 68 -42
-4 -14 14 -13 19 1 2 7 13 9 27 4 29 -9 21 -16 -31 -25 -27 -5 -45 -4 -49 2
-4 6 -10 2 -13 -10 -7 -21 -7 -21 -39 -2 -34 21 -62 27 -52 11 3 -5 0 -13 -6
-16 -5 -4 -9 -23 -7 -43 2 -30 -1 -37 -17 -40 -11 -3 -23 -9 -26 -14 -3 -5
-52 -12 -107 -15 -56 -3 -101 -9 -100 -12 2 -23 -10 -29 -71 -40 -171 -28
-395 3 -606 84 -38 15 -91 33 -118 41 -26 7 -51 15 -56 18 -4 3 -23 7 -42 10
-19 2 -54 11 -79 20 -95 32 -223 58 -243 50 -9 -3 -17 -1 -17 4 0 14 -64 32
-116 32 -28 0 -47 6 -59 20 -10 11 -26 20 -36 20 -10 0 -20 4 -23 9 -3 4 -25
11 -48 14 -24 3 -58 13 -75 22 -18 9 -37 14 -42 11 -5 -4 -11 -2 -13 3 -3 10
-122 76 -211 118 -76 35 -78 37 -75 63 3 23 9 26 63 32 85 11 98 19 114 72 7
25 17 46 23 46 16 0 -3 21 -29 31 -13 5 -22 13 -19 18 4 5 0 11 -6 14 -10 4
-11 7 0 18 14 16 16 59 2 59 -15 0 -12 19 5 36 8 9 15 25 15 37 0 39 23 87 42
87 13 0 18 8 18 30 0 21 11 41 40 70 21 22 43 40 47 40 5 0 13 8 20 19 6 10
27 21 45 24 55 8 248 -12 274 -29 12 -9 29 -16 36 -18 8 -1 28 -17 46 -35 17
-19 43 -39 56 -46 21 -11 27 -10 45 11 12 13 21 28 21 32 0 5 11 19 25 32 14
13 25 27 25 32 0 4 -23 8 -51 8 -28 0 -59 5 -70 10 -23 13 -375 43 -407 35
-12 -3 -35 1 -50 8 -29 15 -52 15 -149 -1 -60 -10 -107 -22 -168 -45 -16 -6
-60 -12 -97 -15 -53 -3 -71 0 -84 12 -31 31 -37 22 -34 -46 1 -20 -4 -45 -12
-57 -10 -17 -10 -23 0 -33 11 -11 16 -9 29 7 14 18 15 18 9 2 -3 -10 -6 -25
-6 -33 0 -8 -7 -14 -16 -14 -9 0 -25 -11 -36 -25 -26 -33 -137 -85 -182 -85
-22 0 -53 11 -83 30 -26 16 -55 30 -65 30 -10 0 -18 5 -18 11 0 21 -64 89 -83
89 -11 0 -28 6 -36 14 -9 8 -23 16 -31 18 -8 2 -21 11 -28 21 -7 9 -21 17 -31
17 -9 0 -23 6 -30 13 -11 10 -12 6 -6 -21 6 -30 4 -33 -27 -46 -29 -13 -35
-13 -48 0 -13 13 -11 17 15 39 l30 25 -43 -3 c-42 -2 -44 -1 -58 38 -26 70
-30 67 101 92 188 37 171 32 152 51 -15 15 -25 15 -104 2 -49 -8 -114 -14
-146 -15 l-58 0 -38 70 c-62 113 -62 109 12 144 56 26 68 29 95 19 25 -10 35
-9 56 5 14 9 43 17 65 17 35 0 42 4 62 38 12 20 51 67 86 104 35 36 63 73 63
81 0 21 -47 49 -70 42 -20 -6 -74 -63 -82 -87 -3 -7 -8 -10 -12 -6 -4 3 -2 16
4 28 6 12 9 24 6 27 -3 4 -13 -11 -22 -33 -9 -21 -22 -46 -30 -55 -7 -8 -15
-26 -17 -39 -3 -18 -14 -26 -53 -36 -27 -7 -59 -13 -72 -14 -12 0 -30 -9 -40
-21 -21 -26 -109 -72 -122 -64 -22 13 -7 37 41 66 53 33 56 59 5 39 -15 -5
-45 -7 -66 -4 -38 6 -39 8 -99 131 -34 69 -61 130 -61 137 0 7 -4 16 -8 22
-19 20 -62 163 -71 234 -6 41 -17 104 -26 140 -25 106 -34 160 -40 245 -10
138 -17 188 -36 262 -31 117 -116 320 -145 344 -8 6 -14 16 -14 21 0 11 -51
81 -62 86 -16 7 -7 49 20 88 15 22 64 88 110 147 76 98 103 145 182 322 12 28
40 78 62 112 26 41 48 93 63 150 29 111 46 152 80 183 27 25 27 25 240 26 246
2 291 11 355 74 59 58 72 124 46 235 -13 53 -13 64 1 93 9 18 34 48 56 65 39
32 39 32 33 88 -5 53 -4 58 29 94 30 32 35 45 35 85 0 36 -6 56 -24 77 -35 42
-46 68 -46 108 0 25 5 37 18 42 119 40 162 114 115 200 -17 29 -138 164 -271
301 -67 69 -79 96 -55 131 24 36 19 144 -12 241 -53 171 -65 220 -70 293 -4
64 -2 77 10 77 8 0 15 7 15 15 0 8 7 15 16 15 34 0 73 40 82 83 11 55 0 102
-48 202 -22 45 -40 90 -40 101 0 10 -11 32 -25 48 -26 31 -31 41 -15 31 27
-17 4 18 -48 73 -64 67 -108 84 -96 37 11 -42 -18 -39 -68 7 -45 43 -155 127
-212 162 -17 10 -41 27 -55 37 -13 10 -29 19 -35 19 -12 0 -63 23 -190 86 -37
19 -75 34 -85 34 -9 1 -34 9 -56 20 -22 11 -47 20 -55 20 -8 0 -53 14 -100 31
-90 32 -219 59 -284 59 -21 0 -66 7 -99 16 -34 8 -72 13 -86 10 -15 -3 -61 0
-103 6 -66 10 -86 9 -135 -5 -32 -10 -92 -24 -133 -33 -41 -8 -118 -25 -170
-36 -52 -11 -111 -22 -130 -24 -19 -2 -51 -11 -70 -18 -19 -7 -56 -16 -81 -20
-35 -5 -51 -14 -68 -36 -12 -17 -37 -36 -56 -44 -22 -10 -35 -22 -35 -33 0
-22 -70 -222 -96 -273 -9 -19 -34 -54 -55 -76 -34 -38 -59 -94 -59 -134 0 -21
-36 -119 -50 -135 -7 -8 -9 -19 -5 -25 4 -7 -2 -18 -13 -26 -17 -12 -19 -22
-14 -79 4 -50 1 -75 -13 -105 -16 -35 -16 -45 -6 -78 17 -52 19 -169 3 -277
-12 -81 -12 -91 3 -102 12 -8 15 -20 10 -41 -4 -21 -2 -33 7 -39 8 -4 24 -25
37 -45 12 -21 26 -38 31 -38 4 0 14 -15 21 -32 7 -18 21 -39 31 -46 10 -7 25
-29 33 -49 8 -19 28 -50 44 -68 16 -18 37 -55 47 -81 21 -56 70 -152 89 -174
7 -8 27 -46 45 -85 17 -38 40 -86 49 -105 10 -19 26 -62 36 -95 9 -33 25 -85
35 -115 10 -30 25 -86 34 -125 8 -38 20 -90 26 -115 7 -25 16 -65 21 -90 5
-25 15 -74 23 -109 13 -58 13 -225 0 -288 -3 -15 -23 -31 -69 -53 -62 -29 -64
-32 -54 -57 14 -37 2 -63 -32 -70 -16 -3 -29 -12 -29 -19 0 -8 -6 -14 -14 -14
-8 0 -25 -13 -38 -29 -13 -16 -33 -34 -45 -40 -13 -6 -23 -19 -23 -29 1 -21
29 -56 53 -65 9 -3 17 -11 17 -17 0 -5 9 -10 20 -10 12 0 26 -5 33 -11 7 -5
27 -19 45 -29 34 -21 42 -40 17 -40 -8 0 -15 -4 -15 -9 0 -5 7 -11 15 -15 22
-8 18 -26 -5 -26 -12 0 -46 -27 -83 -66 -34 -36 -72 -70 -85 -75 -12 -5 -26
-17 -29 -26 -11 -29 -35 -49 -98 -82 -32 -18 -66 -37 -75 -44 -8 -7 -32 -20
-53 -30 -32 -14 -37 -15 -37 -2 0 11 -11 15 -40 15 -22 0 -40 -4 -40 -10 0 -5
-18 -10 -40 -10 -22 0 -40 5 -40 10 0 14 -97 13 -123 -2 -12 -6 -43 -10 -69
-9 -45 2 -48 1 -48 -24 0 -25 -1 -25 -80 -25 -63 0 -80 3 -80 14 0 9 13 16 33
18 l32 4 -28 14 c-20 10 -30 11 -35 3 -4 -6 -42 -14 -84 -18 -68 -6 -78 -5
-78 9 0 9 -5 16 -11 16 -5 0 -7 5 -4 10 10 16 -15 40 -41 40 -30 0 -31 22 -1
35 12 6 22 16 22 22 0 7 11 20 24 30 23 16 23 17 5 24 -17 6 -17 8 7 17 15 6
28 14 30 19 4 9 159 129 200 155 14 9 40 31 57 48 18 17 32 28 32 25 0 -4 21
10 47 31 27 21 54 43 61 49 44 33 60 58 84 130 42 129 62 271 55 399 -13 240
-67 312 -302 404 -44 17 -210 79 -370 137 -494 181 -514 190 -517 219 -1 12
-3 521 -4 1131 -1 611 -2 1119 -2 1130 -2 155 -3 496 -1 625 2 91 4 215 4 275
2 108 6 2372 5 2693 l0 162 -730 0 -730 0 0 -8000z m11254 3448 c4 -24 9 -53
13 -65 7 -28 -13 -31 -22 -3 -11 34 -25 22 -25 -20 0 -25 -5 -40 -12 -40 -7 0
-24 -12 -37 -26 -32 -34 -61 -49 -61 -32 0 7 -7 26 -15 42 -16 31 -12 38 38
67 9 5 17 16 17 25 0 18 69 94 85 94 7 0 15 -19 19 -42z m-914 -63 c6 -16 6
-33 0 -47 -12 -30 -127 -144 -136 -136 -3 4 -9 27 -11 51 -5 38 -2 46 21 64
14 12 26 26 26 32 0 6 6 11 13 11 8 0 24 11 37 25 13 14 27 25 32 25 5 0 13
-11 18 -25z m736 -111 c6 -33 -9 -74 -27 -74 -6 0 -27 -16 -47 -35 -20 -19
-40 -35 -44 -35 -4 0 -19 -12 -33 -26 -29 -29 -40 -24 -49 22 -7 33 3 50 51
81 15 10 22 22 18 33 -6 19 20 36 30 20 9 -15 45 22 45 46 0 53 45 27 56 -32z
m-386 -894 c0 -16 5 -30 10 -30 7 0 7 -6 2 -17 -5 -10 -7 -23 -5 -30 6 -17
-15 -53 -32 -53 -9 0 -15 9 -15 21 0 18 -2 20 -16 8 -8 -7 -13 -21 -11 -31 7
-24 -5 -23 -21 2 -7 11 -18 20 -26 20 -15 0 -27 35 -20 55 5 12 70 49 84 48 3
0 11 8 18 18 19 28 32 23 32 -11z m-6376 -37 c14 -10 26 -23 26 -29 0 -6 43
-53 95 -105 105 -103 118 -120 109 -143 -11 -30 -42 -16 -126 57 -47 39 -98
78 -114 86 -16 7 -37 17 -46 22 -10 5 -23 6 -30 4 -21 -8 -47 17 -54 52 -5 26
-1 37 21 59 22 21 33 25 60 21 19 -3 46 -14 59 -24z m6776 -31 c0 -10 7 -28
16 -41 11 -15 17 -44 17 -80 0 -62 19 -167 36 -199 6 -11 12 -41 14 -67 2 -50
-3 -54 -105 -98 -37 -16 -38 -16 -52 6 -8 12 -17 51 -21 87 -4 36 -17 108 -30
160 -33 133 -35 169 -10 184 11 6 23 16 28 23 4 6 21 14 37 18 16 4 32 11 35
16 10 16 35 10 35 -9z m-169 -134 c11 -20 37 -158 45 -238 2 -19 7 -47 10 -62
5 -22 3 -28 -10 -28 -13 0 -14 -5 -6 -26 7 -19 7 -31 -1 -40 -16 -19 -29 -17
-29 4 0 10 -7 27 -15 38 -15 19 -15 19 -30 -1 -9 -11 -15 -33 -13 -49 4 -42
-18 -43 -37 -2 -19 40 -22 89 -10 160 7 42 6 51 -11 63 -19 14 -19 14 1 11 18
-3 20 3 20 47 0 44 3 50 22 53 26 4 28 39 3 59 -13 11 -13 14 0 23 24 16 49
11 61 -12z m-851 -386 c0 -52 -14 -59 -175 -82 -283 -40 -273 -37 -277 -73 -2
-24 -8 -32 -23 -32 -15 0 -20 7 -20 28 1 28 -1 29 -35 23 -19 -3 -255 -40
-525 -82 -269 -41 -544 -84 -610 -95 -159 -25 -205 -25 -205 0 0 11 4 22 9 25
10 6 647 112 1276 212 297 47 470 74 510 80 22 4 47 10 55 15 8 5 16 9 18 9 1
0 2 -13 2 -28z m1158 -125 c51 -269 54 -289 43 -300 -6 -6 -11 -16 -11 -21 0
-6 5 -4 10 4 8 11 10 1 8 -35 -3 -42 -6 -50 -23 -50 -18 0 -20 8 -23 68 -2 39
2 74 8 82 8 9 7 25 0 56 -6 24 -15 60 -19 79 -10 45 -46 125 -60 134 -18 12
-13 32 12 43 34 16 43 7 55 -60z m-117 -114 c-3 -120 -1 -149 11 -157 20 -15
38 -51 38 -76 0 -12 4 -18 10 -15 10 6 7 29 -15 135 -8 36 -13 72 -13 80 0 8
-3 32 -7 52 -6 31 -4 39 10 44 21 8 35 -11 35 -48 0 -15 5 -30 10 -33 6 -3 10
-41 10 -84 0 -43 5 -103 11 -135 13 -63 3 -90 -25 -67 -12 10 -16 8 -21 -8
-14 -44 -35 -20 -50 54 -10 49 -11 50 -48 53 -33 3 -37 6 -32 23 4 11 2 44 -5
72 -6 29 -13 63 -16 76 l-5 24 -12 -24 c-13 -25 -15 -78 -4 -96 4 -6 4 -19 1
-28 -4 -9 1 -34 11 -56 20 -42 15 -60 -10 -39 -22 18 -28 8 -35 -68 -4 -37 -8
-64 -9 -59 0 4 -1 10 0 13 0 4 -5 10 -11 14 -7 4 -14 25 -16 46 -7 76 -16 129
-24 149 -5 11 -11 27 -14 35 -3 8 -3 -12 1 -45 4 -33 8 -82 8 -110 -1 -29 5
-56 13 -64 7 -7 11 -20 8 -28 -3 -8 -6 -19 -6 -23 0 -5 -17 -12 -37 -16 -21
-4 -48 -14 -61 -22 -32 -21 -44 -5 -50 64 -4 50 -2 59 18 74 29 22 20 63 -13
58 -14 -2 -23 3 -25 15 -3 13 1 17 14 15 13 -2 18 4 19 22 4 83 6 90 19 90 8
0 17 4 20 9 10 16 -12 61 -30 61 -24 0 -11 24 19 34 33 12 33 11 57 -55 15
-41 19 -47 20 -27 0 15 -4 38 -9 51 -7 18 -5 30 5 46 21 29 31 26 39 -10 14
-62 66 -38 60 28 -2 34 15 49 34 30 6 -6 11 -25 11 -42 0 -17 4 -35 8 -40 12
-14 34 -93 39 -140 3 -22 6 -42 9 -44 15 -15 12 24 -11 154 -15 81 -25 148
-23 150 6 5 63 34 68 35 3 0 4 -66 1 -147z m-2013 -135 c-3 -7 -27 -16 -54
-20 -105 -14 -602 -79 -651 -85 -33 -3 -53 -2 -53 4 0 6 28 13 63 17 34 3 195
26 357 50 335 50 343 51 338 34z m-18 -117 c-8 -16 -7 -22 6 -29 9 -5 14 -18
12 -33 -3 -22 -9 -24 -113 -36 -257 -29 -290 -31 -297 -20 -5 8 -61 5 -195
-10 -109 -12 -192 -17 -197 -12 -6 5 -20 9 -33 9 -47 0 -21 19 35 25 206 21
382 50 382 62 0 15 12 18 150 34 58 7 128 15 155 19 28 4 63 8 78 9 24 1 27
-1 17 -18z m20 -119 c0 -2 -8 -11 -17 -18 -17 -12 -17 -14 2 -28 18 -15 19
-17 3 -26 -12 -7 -15 -19 -11 -48 l5 -39 -82 -7 c-46 -4 -85 -5 -87 -2 -14 14
15 26 63 26 55 0 62 6 48 44 -4 11 -15 14 -37 11 -18 -2 -111 -11 -207 -20
-96 -9 -231 -22 -300 -30 -168 -20 -198 -21 -211 -8 -18 18 0 33 41 33 46 0
70 8 70 24 0 7 53 18 153 29 260 30 329 38 427 51 107 14 140 16 140 8z m2195
-143 c12 -30 26 -78 30 -105 4 -27 13 -62 19 -79 7 -16 14 -34 16 -40 1 -5 10
-26 20 -45 26 -52 32 -86 17 -98 -20 -17 -34 -1 -42 46 -10 60 -29 55 -21 -7
8 -60 -5 -73 -66 -69 -34 2 -43 7 -46 23 -5 40 -35 166 -38 163 -2 -2 2 -35 8
-73 6 -39 11 -83 12 -100 1 -30 0 -30 -54 -31 -30 -1 -56 -6 -58 -13 -2 -6
-14 -11 -26 -11 -20 0 -25 9 -40 74 -18 76 -18 113 1 109 14 -3 28 68 14 76
-5 4 -15 19 -20 34 -6 16 -15 26 -19 23 -11 -7 -35 64 -31 89 2 10 10 20 17
23 8 2 12 -10 12 -42 0 -25 5 -46 10 -46 6 0 10 8 10 18 0 23 19 42 43 42 15
0 17 5 12 30 -6 26 -3 30 20 36 15 4 30 3 35 -2 4 -5 14 -45 20 -89 16 -101
17 -105 32 -105 9 0 10 2 2 8 -7 4 -14 39 -17 77 -3 39 -8 80 -12 93 -4 12 -3
22 2 22 12 0 43 -121 43 -167 0 -17 4 -34 9 -37 5 -4 12 -25 16 -47 5 -30 10
-38 18 -30 8 8 8 14 -1 23 -7 7 -12 25 -12 40 0 15 -4 28 -10 28 -12 0 -14 27
-2 32 5 2 5 35 2 73 -4 39 -3 72 0 75 4 3 9 13 13 23 12 32 38 14 62 -44z
m-341 -38 c3 -4 7 -43 10 -85 3 -60 1 -76 -10 -76 -8 0 -14 5 -14 11 0 5 -4 8
-9 4 -12 -7 25 -73 50 -88 11 -7 19 -20 19 -30 0 -16 -5 -18 -26 -13 -24 6
-26 5 -20 -18 4 -17 1 -28 -9 -34 -14 -7 -13 -11 5 -32 23 -26 26 -58 8 -65
-7 -2 -26 -6 -43 -7 -25 -3 -30 0 -28 17 14 117 6 165 -28 165 -26 0 -37 49
-15 65 14 10 16 26 13 88 -4 79 3 94 38 81 8 -4 17 1 21 10 7 17 29 22 38 7z
m-2310 -423 c7 -54 14 -599 9 -615 -5 -13 -71 -17 -109 -7 -13 3 -29 22 -39
45 -18 39 -18 39 -77 39 -57 0 -59 -1 -65 -31 -6 -34 -33 -49 -88 -49 -29 0
-33 3 -38 33 -11 64 -12 586 -1 597 10 10 187 26 326 29 l77 1 5 -42z m1996
-346 c0 -4 -19 -18 -42 -30 -24 -12 -74 -40 -113 -61 -38 -22 -76 -40 -82 -41
-9 0 -13 18 -13 59 l0 59 78 7 c42 4 82 8 87 10 20 7 85 5 85 -3z m-9013 -107
c136 -7 165 -11 146 -23 -21 -13 -114 -175 -152 -266 -43 -100 -64 -180 -81
-301 -6 -44 -19 -105 -29 -135 -11 -30 -22 -74 -26 -97 -4 -24 -11 -43 -16
-43 -11 0 -13 863 -2 874 4 3 13 4 19 2 7 -3 71 -8 141 -11z m7209 -1085 c10
0 14 -13 14 -40 0 -36 -2 -40 -25 -40 -23 0 -25 -4 -25 -41 0 -32 4 -42 20
-46 11 -3 20 -9 20 -14 0 -5 -9 -9 -20 -9 -11 0 -20 -4 -20 -9 0 -4 11 -6 25
-3 14 2 25 1 25 -3 0 -10 -43 -44 -56 -45 -5 0 -23 -13 -39 -30 -24 -26 -36
-30 -79 -30 -78 0 -228 31 -252 52 -11 10 -28 18 -37 18 -9 0 -19 5 -22 11 -4
5 -19 9 -33 7 -40 -4 -151 13 -158 23 -3 5 -11 6 -17 3 -8 -5 -9 -4 -2 4 14
15 70 28 61 14 -11 -18 8 -21 55 -10 30 8 54 23 76 48 31 35 35 37 83 32 41
-4 50 -2 50 12 0 9 6 16 14 16 7 0 19 7 27 16 7 8 21 13 31 11 22 -6 88 13 88
25 0 4 18 8 40 8 22 0 40 4 40 9 0 13 38 20 74 15 16 -2 35 -4 42 -4z m-3340
-1234 c3 -8 28 -24 55 -37 27 -13 49 -27 49 -30 0 -4 14 -9 30 -12 21 -5 30
-12 30 -26 0 -25 21 -41 64 -48 20 -3 36 -11 36 -19 0 -21 -38 -27 -62 -10
-12 9 -48 18 -81 22 -38 4 -67 14 -79 26 -10 10 -23 16 -29 13 -11 -7 -59 21
-59 34 0 5 11 12 25 15 39 10 18 28 -28 24 -33 -2 -42 1 -45 14 -2 12 7 22 30
32 43 19 57 19 64 2z m3169 -433 c82 -26 115 -46 115 -69 0 -9 -11 -12 -37
-10 -21 2 -52 2 -70 -1 -30 -5 -31 -5 -12 -24 22 -22 23 -30 7 -51 -12 -15
-21 -15 -104 4 -92 22 -152 19 -109 -4 11 -6 22 -14 25 -17 3 -4 22 -15 44
-26 21 -11 43 -27 49 -37 6 -9 16 -14 23 -11 7 2 21 0 31 -6 28 -17 -92 -6
-145 13 -24 9 -83 21 -130 27 -48 6 -121 18 -162 27 -109 24 -212 18 -267 -14
-43 -25 -52 -41 -32 -61 13 -13 -9 -23 -34 -14 -16 6 -16 9 5 51 19 37 35 51
89 80 37 19 75 42 85 51 23 19 135 72 187 89 52 16 263 39 317 33 25 -2 81
-16 125 -30z m-8250 -1629 c-21 -15 -20 -80 1 -92 17 -10 12 -52 -7 -52 -16 0
-10 -52 9 -66 16 -13 16 -13 0 -14 -10 0 -18 -7 -18 -15 0 -8 6 -12 14 -9 12
4 15 -10 18 -73 4 -103 -5 -196 -20 -201 -7 -2 -12 -15 -12 -28 0 -14 4 -23 9
-19 5 3 12 1 15 -4 8 -13 -4 -42 -15 -35 -5 3 -9 1 -9 -5 0 -5 5 -11 12 -13 9
-3 13 -76 15 -281 2 -231 0 -279 -12 -291 -19 -19 -19 -46 0 -46 8 0 15 -4 15
-10 0 -5 -4 -10 -9 -10 -14 0 -23 -32 -12 -43 14 -14 -5 -37 -30 -37 -15 0
-19 -8 -19 -40 0 -38 2 -40 30 -40 20 0 30 -5 30 -15 0 -8 -5 -15 -11 -15 -8
0 -9 -26 -6 -82 3 -46 3 -69 1 -53 -6 41 -25 85 -35 85 -5 0 -17 -17 -28 -37
l-20 -38 -1 38 c0 34 -2 37 -30 37 l-30 0 0 320 c0 207 4 320 10 320 6 0 10
18 10 40 0 22 -4 40 -10 40 -6 0 -10 33 -10 80 l0 80 30 0 30 0 0 80 0 80 -30
0 c-28 0 -30 2 -30 40 0 36 2 40 26 40 17 0 28 6 31 20 4 16 14 20 44 20 32 0
39 -3 39 -20 0 -11 -4 -20 -10 -20 -5 0 -10 -11 -10 -25 0 -18 -5 -25 -20 -25
-15 0 -20 7 -20 25 0 14 -4 25 -10 25 -5 0 -10 -11 -10 -25 0 -14 5 -25 10
-25 6 0 10 -7 10 -15 0 -8 9 -15 20 -15 11 0 20 7 20 15 0 8 7 15 15 15 12 0
15 15 14 78 0 42 -3 71 -6 65 -2 -7 -22 -13 -43 -13 l-39 0 1 165 2 165 37 -6
c23 -4 39 -2 44 6 6 9 9 9 16 -1 6 -9 3 -18 -6 -25z m8575 -1119 c0 -18 27
-20 33 -2 7 21 19 0 12 -22 -5 -17 -14 -21 -43 -21 -20 0 -84 1 -141 1 -95 -1
-131 7 -131 28 0 16 72 28 168 30 85 1 102 -2 102 -14z m-8024 -299 c8 -8 14
-31 14 -50 l0 -36 -90 0 -90 0 0 40 0 40 40 0 c22 0 40 5 40 10 0 15 70 12 86
-4z"/>
<path d="M6668 15994 c-3 -2 -26 -5 -54 -6 -34 -2 -50 -8 -52 -18 -3 -20 139
-84 170 -77 25 7 118 84 118 98 0 9 -174 11 -182 3z"/>
<path d="M6910 15990 c0 -16 83 -67 120 -73 30 -6 43 -1 99 38 l65 45 -142 0
c-83 0 -142 -4 -142 -10z"/>
<path d="M7259 15983 c16 -31 76 -82 96 -84 51 -5 63 1 84 46 12 25 21 47 21
50 0 3 -47 5 -105 5 -98 0 -105 -1 -96 -17z"/>
<path d="M11507 15988 c15 -19 15 -451 0 -460 -9 -6 -9 -8 1 -8 9 0 12 -28 12
-107 0 -89 -3 -114 -19 -140 -14 -22 -16 -33 -8 -36 13 -4 16 -112 3 -160 -16
-64 32 -4 123 154 l93 163 -7 303 -8 303 -100 0 c-78 0 -97 -3 -90 -12z"/>
<path d="M11890 15901 c0 -56 4 -103 10 -106 6 -4 10 11 11 37 1 24 3 35 6 26
2 -10 9 -18 14 -18 5 0 9 -18 9 -40 0 -28 4 -40 14 -40 8 0 21 -3 30 -6 14 -5
16 9 16 120 l0 126 -31 0 c-19 0 -37 -7 -45 -17 -13 -17 -13 -17 -14 0 0 9 -4
17 -10 17 -6 0 -10 -40 -10 -99z"/>
<path d="M6332 15959 c-87 -8 -94 -20 -41 -59 65 -48 103 -62 131 -49 31 15
67 62 70 91 3 21 0 23 -47 23 -27 0 -78 -3 -113 -6z"/>
<path d="M6045 15934 c-66 -6 -122 -12 -124 -13 -11 -3 29 -36 71 -57 68 -34
105 -32 156 12 42 36 52 58 30 66 -7 2 -67 -1 -133 -8z"/>
<path d="M5675 15906 c-82 -9 -100 -14 -103 -28 -2 -10 2 -18 10 -18 7 0 41
-12 75 -26 l63 -27 70 47 c104 68 90 75 -115 52z"/>
<path d="M5342 15873 c-106 -4 -124 -17 -80 -58 54 -50 126 -77 153 -57 27 20
75 85 75 102 0 16 -6 20 -27 18 -16 -1 -70 -4 -121 -5z"/>
<path d="M11247 14688 c-60 -31 -80 -54 -57 -68 8 -5 9 -9 1 -14 -6 -4 -11
-15 -11 -24 0 -10 -10 -23 -21 -31 -18 -11 -23 -11 -31 1 -5 8 -6 2 -2 -16 5
-19 3 -27 -3 -23 -13 8 -26 -20 -17 -35 3 -5 12 -7 20 -4 8 3 14 -1 14 -9 0
-8 -4 -15 -10 -15 -5 0 -10 -7 -10 -16 0 -25 103 112 133 176 4 8 15 29 25 45
17 28 34 66 29 64 -1 -1 -28 -15 -60 -31z"/>
<path d="M9061 12413 c-1 -9 -18 -13 -51 -13 -27 0 -50 -4 -50 -9 0 -4 -30
-11 -67 -14 -38 -3 -77 -8 -88 -11 -11 -2 -29 -5 -40 -6 -47 -2 50 -30 128
-36 45 -3 92 -10 104 -15 13 -5 25 -4 28 1 4 7 13 6 25 0 13 -7 21 -7 25 0 3
5 1 10 -5 10 -6 0 -8 5 -5 10 11 18 24 10 28 -17 2 -16 5 -2 6 30 1 43 -2 57
-13 57 -8 0 -17 6 -19 13 -4 10 -6 10 -6 0z"/>
<path d="M11886 7481 c-5 -8 -9 -29 -8 -47 1 -27 -4 -35 -28 -46 -31 -13 -60
-68 -60 -112 0 -13 -7 -29 -15 -36 -8 -7 -15 -19 -15 -26 0 -8 -6 -14 -12 -14
-9 0 -8 -4 2 -10 17 -11 92 -13 138 -4 28 6 30 9 20 27 -6 12 -9 49 -6 91 6
91 -4 196 -16 177z"/>
<path d="M7444 6403 c5 -16 2 -25 -14 -33 -11 -6 -18 -15 -15 -20 3 -5 1 -11
-5 -15 -5 -3 -10 -26 -10 -51 0 -24 -3 -44 -7 -44 -9 0 -9 -67 -1 -75 3 -3 18
6 34 19 16 14 40 33 53 43 20 16 24 29 26 87 2 55 -1 69 -14 73 -9 3 -24 13
-35 22 -18 15 -18 15 -12 -6z"/>
<path d="M10710 6336 c0 -7 9 -25 20 -39 11 -14 33 -53 49 -87 16 -34 36 -69
44 -78 8 -9 17 -29 21 -44 3 -16 11 -28 16 -28 6 0 10 -8 10 -18 0 -9 9 -34
19 -54 37 -68 131 -333 131 -370 0 -9 4 -18 9 -20 5 -1 16 -43 26 -93 9 -49
23 -111 31 -136 8 -26 14 -60 14 -77 0 -17 5 -34 10 -37 6 -3 10 -15 10 -26 0
-19 48 -101 63 -107 4 -2 7 -10 7 -17 0 -7 4 -15 9 -17 5 -1 19 -39 31 -83 12
-44 28 -90 36 -102 8 -12 14 -41 14 -63 0 -38 2 -41 23 -35 12 3 17 3 11 -2
-6 -4 -14 -53 -17 -108 -4 -55 -10 -112 -13 -127 l-6 -28 120 0 c115 0 120 -1
115 -20 -5 -17 0 -20 31 -20 20 0 36 5 36 10 0 6 -9 10 -19 10 -11 0 -23 5
-26 10 -4 7 48 10 149 10 139 0 156 2 156 17 0 9 5 32 12 50 9 25 18 33 36 33
13 0 21 -4 18 -9 -8 -12 22 -36 32 -26 4 4 1 10 -5 12 -22 8 -14 23 11 23 22
0 46 -17 43 -32 -1 -3 2 -10 6 -14 5 -5 7 18 5 50 l-3 59 -65 14 c-36 7 -92
13 -125 11 -54 -2 -60 0 -63 19 -2 12 -13 24 -25 28 -20 7 -18 8 13 15 19 4
28 8 19 9 -9 0 -19 8 -23 16 -3 8 -15 15 -26 15 -11 0 -20 -7 -20 -15 0 -8 -9
-15 -20 -15 -17 0 -20 7 -20 40 0 36 2 40 26 40 15 0 23 4 19 10 -4 6 -1 17 5
25 6 8 8 20 4 27 -4 7 -10 31 -12 53 -2 22 -8 43 -15 47 -8 5 -8 14 1 33 17
36 15 45 -9 45 -18 0 -20 6 -19 53 1 28 -2 64 -5 80 -5 18 -3 27 4 27 7 0 9 5
6 10 -3 6 -15 10 -26 10 -10 0 -19 -4 -19 -10 0 -5 -9 -10 -20 -10 -17 0 -20
-7 -20 -40 l0 -40 -100 0 -100 0 0 40 0 40 -40 0 c-27 0 -40 4 -40 13 0 8 -8
22 -19 31 -10 9 -21 34 -25 56 -3 21 -13 45 -21 54 -8 8 -15 31 -15 50 0 23
-5 36 -13 36 -11 0 -13 -22 -10 -100 1 -54 -1 -101 -6 -104 -4 -3 -15 30 -24
72 -15 75 -81 277 -96 297 -5 5 -11 22 -15 38 -12 50 -205 451 -276 575 -29
50 -50 66 -50 38z"/>
<path d="M5870 6307 c-9 -7 -27 -30 -40 -52 -42 -70 -141 -182 -177 -199 -33
-16 -37 -36 -7 -36 19 0 94 38 94 48 0 7 66 93 140 184 43 53 36 92 -10 55z"/>
<path d="M11120 5009 c2 -41 2 -140 1 -221 l-1 -148 -60 0 c-33 0 -70 -6 -81
-12 -17 -10 -23 -10 -26 0 -3 6 -12 12 -21 13 -9 0 -30 9 -47 19 -16 11 -37
24 -46 29 -8 5 -21 6 -29 1 -12 -7 -12 -11 1 -26 11 -13 11 -18 2 -21 -18 -6
-16 -23 2 -23 8 0 26 -5 40 -12 l26 -12 -22 -17 c-22 -16 -20 -17 62 -23 204
-14 307 -17 312 -9 7 13 -13 246 -23 258 -4 5 -11 44 -15 85 -7 71 -43 171
-67 186 -7 4 -9 -21 -8 -67z"/>
<path d="M10307 4732 c-5 -7 -5 -21 -2 -32 9 -29 -3 -57 -26 -63 -30 -8 -15
-23 29 -31 28 -4 42 -12 50 -31 l12 -25 167 1 c93 0 191 4 218 8 l50 7 -33 18
c-19 9 -40 15 -48 12 -9 -3 -25 5 -38 19 -13 14 -33 25 -45 25 -13 0 -21 6
-21 16 0 13 -8 15 -35 12 -23 -3 -36 1 -40 10 -4 12 -8 12 -20 2 -13 -10 -19
-9 -35 5 -17 16 -21 16 -35 2 -25 -25 -55 -30 -74 -13 -10 9 -24 16 -32 16 -8
0 -20 12 -25 28 -7 19 -12 23 -17 14z"/>
<path d="M11943 4125 c-15 -10 -23 -11 -25 -4 -3 8 -14 7 -35 -5 -18 -9 -42
-15 -55 -13 -19 2 -25 -5 -36 -41 -19 -58 -10 -82 41 -115 35 -21 146 -67 164
-67 1 0 3 56 3 124 0 104 -3 125 -16 130 -20 8 -16 8 -41 -9z"/>
</g>
</svg>
